<svg width="58" height="56" viewBox="0 0 58 56" fill="none" xmlns="http://www.w3.org/2000/svg">
<path d="M28.9823 12.5253C21.0402 12.5253 21.5361 15.9503 21.5361 15.9503L21.545 19.4988H29.1239V20.5641H18.5347C18.5347 20.5641 13.4526 19.9909 13.4526 27.9599C13.4526 35.9291 17.8884 35.6465 17.8884 35.6465H20.5357V31.9485C20.5357 31.9485 20.3929 27.5373 24.9007 27.5373H32.4177C32.4177 27.5373 36.6409 27.6052 36.6409 23.4783V16.6548C36.6409 16.6548 37.2823 12.5253 28.9823 12.5253ZM24.8033 14.9116C24.9824 14.9114 25.1597 14.9464 25.3252 15.0145C25.4907 15.0825 25.6411 15.1824 25.7677 15.3083C25.8944 15.4343 25.9948 15.5838 26.0633 15.7484C26.1317 15.913 26.1669 16.0893 26.1667 16.2674C26.1669 16.4455 26.1317 16.6219 26.0633 16.7865C25.9948 16.9511 25.8944 17.1006 25.7677 17.2266C25.6411 17.3525 25.4907 17.4524 25.3252 17.5204C25.1597 17.5885 24.9824 17.6235 24.8033 17.6233C24.6242 17.6235 24.4468 17.5885 24.2813 17.5204C24.1158 17.4524 23.9655 17.3525 23.8388 17.2266C23.7122 17.1006 23.6117 16.9511 23.5433 16.7865C23.4748 16.6219 23.4397 16.4455 23.4398 16.2674C23.4397 16.0893 23.4748 15.913 23.5433 15.7484C23.6117 15.5838 23.7122 15.4343 23.8388 15.3083C23.9655 15.1824 24.1158 15.0825 24.2813 15.0145C24.4468 14.9464 24.6242 14.9114 24.8033 14.9116V14.9116Z" fill="url(#paint0_linear_1_6346)"/>
<path d="M29.2079 43.4747C37.1499 43.4747 36.6541 40.0496 36.6541 40.0496L36.6452 36.5013H29.0661V35.436H39.6554C39.6554 35.436 44.7375 36.0092 44.7375 28.04C44.7375 20.0708 40.3017 20.3535 40.3017 20.3535H37.6544V24.0514C37.6544 24.0514 37.7971 28.4626 33.2894 28.4626H25.7724C25.7724 28.4626 21.5491 28.3947 21.5491 32.5217V39.3453C21.5491 39.3453 20.9078 43.4747 29.2078 43.4747H29.2079ZM33.3869 41.0887C33.2078 41.0888 33.0305 41.0539 32.865 40.9858C32.6995 40.9177 32.5491 40.8178 32.4225 40.6919C32.2958 40.566 32.1954 40.4164 32.1269 40.2518C32.0585 40.0873 32.0233 39.9109 32.0235 39.7328C32.0233 39.5547 32.0584 39.3783 32.1269 39.2137C32.1953 39.0491 32.2958 38.8995 32.4224 38.7736C32.5491 38.6476 32.6994 38.5478 32.8649 38.4797C33.0304 38.4116 33.2078 38.3766 33.3869 38.3768C33.566 38.3766 33.7434 38.4116 33.9089 38.4797C34.0744 38.5477 34.2247 38.6476 34.3514 38.7736C34.478 38.8995 34.5785 39.049 34.6469 39.2136C34.7154 39.3782 34.7505 39.5546 34.7504 39.7327C34.7505 39.9108 34.7154 40.0871 34.6469 40.2517C34.5785 40.4163 34.478 40.5658 34.3514 40.6918C34.2247 40.8177 34.0744 40.9176 33.9089 40.9857C33.7434 41.0537 33.566 41.0887 33.3869 41.0885V41.0887Z" fill="url(#paint1_linear_1_6346)"/>
<defs>
<linearGradient id="paint0_linear_1_6346" x1="16.459" y1="15.309" x2="31.8774" y2="30.6588" gradientUnits="userSpaceOnUse">
<stop stop-color="#387EB8"/>
<stop offset="1" stop-color="#366994"/>
</linearGradient>
<linearGradient id="paint1_linear_1_6346" x1="25.9753" y1="25.1106" x2="42.5371" y2="40.8544" gradientUnits="userSpaceOnUse">
<stop stop-color="#FFE052"/>
<stop offset="1" stop-color="#FFC331"/>
</linearGradient>
</defs>
</svg>
