<svg width="56" height="56" viewBox="0 0 56 56" fill="none" xmlns="http://www.w3.org/2000/svg">
<path d="M23.9172 36.5045C23.9172 36.5045 22.7283 37.1958 24.7633 37.4297C27.2286 37.711 28.4885 37.6707 31.2054 37.1564C31.2054 37.1564 31.9197 37.6043 32.9171 37.9923C26.8269 40.6024 19.1335 37.841 23.9172 36.5045V36.5045ZM23.173 33.0983C23.173 33.0983 21.8395 34.0853 23.876 34.2959C26.5095 34.5676 28.5893 34.5899 32.188 33.8969C32.188 33.8969 32.6858 34.4015 33.4685 34.6775C26.1049 36.8307 17.9032 34.8473 23.173 33.0983" fill="#5382A1"/>
<path d="M29.4469 27.3203C30.9476 29.048 29.0526 30.6028 29.0526 30.6028C29.0526 30.6028 32.863 28.6357 31.1131 26.1725C29.4787 23.8755 28.2253 22.734 35.0105 18.7989C35.0105 18.7989 24.3599 21.4589 29.4469 27.3202" fill="#E76F00"/>
<path d="M37.5018 39.0239C37.5018 39.0239 38.3816 39.7488 36.5328 40.3096C33.0175 41.3746 21.9013 41.6962 18.8133 40.352C17.7033 39.8692 19.785 39.199 20.4397 39.0583C21.1226 38.9102 21.5129 38.9379 21.5129 38.9379C20.2784 38.0682 13.5336 40.6455 18.0869 41.3835C30.5044 43.3973 40.7227 40.4768 37.5018 39.0239ZM24.4888 29.5691C24.4888 29.5691 18.8345 30.9122 22.4866 31.3998C24.0285 31.6062 27.1024 31.5596 29.9657 31.3196C32.3058 31.1223 34.6554 30.7026 34.6554 30.7026C34.6554 30.7026 33.8303 31.056 33.2334 31.4636C27.4915 32.9737 16.3991 32.2712 19.5925 30.7265C22.2931 29.421 24.4889 29.5691 24.4889 29.5691H24.4888ZM34.6321 35.2388C40.4691 32.2057 37.7703 29.291 35.8866 29.6837C35.4249 29.7797 35.219 29.863 35.219 29.863C35.219 29.863 35.3905 29.5945 35.7178 29.4783C39.4443 28.1681 42.3103 33.3424 34.5148 35.3917C34.5148 35.3918 34.6052 35.3111 34.6321 35.2388" fill="#5382A1"/>
<path d="M31.113 12.4445C31.113 12.4445 34.3457 15.6783 28.0471 20.6507C22.9963 24.6395 26.8953 26.9138 28.045 29.5123C25.0968 26.8523 22.9331 24.5106 24.3847 22.3313C26.5151 19.132 32.4173 17.5809 31.113 12.4444" fill="#E76F00"/>
<path d="M25.0624 43.4577C30.6652 43.8164 39.2688 43.2588 39.4725 40.6077C39.4725 40.6077 39.0809 41.6128 34.8422 42.4109C30.0601 43.3107 24.1622 43.2057 20.664 42.6289C20.6641 42.6289 21.3801 43.2216 25.0625 43.4577" fill="#5382A1"/>
</svg>
