<svg width="83" height="83" viewBox="0 0 83 83" fill="none" xmlns="http://www.w3.org/2000/svg">
    <path d="M19.4444 64.969L6.64056 11.066L0 0L14.3886 72.7773L38.8934 64.8254L35.6635 59.436L19.4444 64.969Z"
          fill="#F6007C"/>
    <path d="M0 0L49.8019 60.8679V83L43.2818 72.1378V60.6362L39.329 54.0698L38.8934 64.8254L35.6634 59.436V49.825L0 0Z"
          fill="#F6007C"/>
    <path d="M53.2079 31.9238L47.6609 28.5966L39.5282 31.3075L43.0825 35.6542L47.9436 33.8654L70.3584 47.3134L50.8074 53.3608L18.2303 16.0384L33.3372 25.1025L38.0546 22.8318L0 0L49.8019 60.8679L83 49.8018L53.2079 31.9238Z"
          fill="#F6007C"/>
</svg>